<svg width="79" height="72" viewBox="0 0 79 72" fill="none" xmlns="http://www.w3.org/2000/svg">
<path d="M2.52841 39V9.90909H14.0057C16.2027 9.90909 18.0777 10.3021 19.6307 11.0881C21.1932 11.8646 22.3816 12.9678 23.196 14.3977C24.0199 15.8182 24.4318 17.4896 24.4318 19.4119C24.4318 21.3437 24.0152 23.0057 23.1818 24.3977C22.3485 25.7803 21.1411 26.8409 19.5597 27.5795C17.9877 28.3182 16.0843 28.6875 13.8494 28.6875H6.16477V23.7443H12.8551C14.0294 23.7443 15.0047 23.5833 15.7812 23.2614C16.5578 22.9394 17.1354 22.4564 17.5142 21.8125C17.9025 21.1686 18.0966 20.3684 18.0966 19.4119C18.0966 18.446 17.9025 17.6316 17.5142 16.9688C17.1354 16.3059 16.553 15.804 15.767 15.4631C14.9905 15.1127 14.0104 14.9375 12.8267 14.9375H8.67898V39H2.52841ZM18.2386 25.7614L25.4688 39H18.679L11.6051 25.7614H18.2386ZM35.3864 39.4119C33.9943 39.4119 32.7538 39.1705 31.6648 38.6875C30.5758 38.1951 29.714 37.4706 29.0795 36.5142C28.4545 35.5483 28.142 34.3456 28.142 32.9062C28.142 31.6941 28.3646 30.6761 28.8097 29.8523C29.2547 29.0284 29.8608 28.3655 30.6278 27.8636C31.3949 27.3617 32.2661 26.983 33.2415 26.7273C34.2263 26.4716 35.2585 26.2917 36.3381 26.1875C37.607 26.0549 38.6297 25.9318 39.4062 25.8182C40.1828 25.6951 40.7462 25.5152 41.0966 25.2784C41.447 25.0417 41.6222 24.6913 41.6222 24.2273V24.142C41.6222 23.2424 41.3381 22.5464 40.7699 22.054C40.2112 21.5616 39.4157 21.3153 38.3835 21.3153C37.2945 21.3153 36.428 21.5568 35.7841 22.0398C35.1402 22.5133 34.714 23.1098 34.5057 23.8295L28.9091 23.375C29.1932 22.0492 29.7519 20.9034 30.5852 19.9375C31.4186 18.9621 32.4934 18.214 33.8097 17.6932C35.1354 17.1629 36.6695 16.8977 38.4119 16.8977C39.6241 16.8977 40.7841 17.0398 41.892 17.3239C43.0095 17.608 43.9991 18.0483 44.8608 18.6449C45.732 19.2415 46.4186 20.0085 46.9205 20.946C47.4223 21.8741 47.6733 22.9867 47.6733 24.2841V39H41.9347V35.9744H41.7642C41.4138 36.6562 40.9451 37.2576 40.358 37.7784C39.7708 38.2898 39.0653 38.6922 38.2415 38.9858C37.4176 39.2699 36.4659 39.4119 35.3864 39.4119ZM37.1193 35.2358C38.0095 35.2358 38.7955 35.0606 39.4773 34.7102C40.1591 34.3504 40.6941 33.8674 41.0824 33.2614C41.4706 32.6553 41.6648 31.9687 41.6648 31.2017V28.8864C41.4754 29.0095 41.215 29.1231 40.8835 29.2273C40.5616 29.322 40.197 29.4119 39.7898 29.4972C39.3826 29.5729 38.9754 29.6439 38.5682 29.7102C38.161 29.767 37.7917 29.8191 37.4602 29.8665C36.75 29.9706 36.1297 30.1364 35.5994 30.3636C35.0691 30.5909 34.6572 30.8987 34.3636 31.2869C34.0701 31.6657 33.9233 32.1392 33.9233 32.7074C33.9233 33.5312 34.2216 34.161 34.8182 34.5966C35.4242 35.0227 36.1913 35.2358 37.1193 35.2358Z" fill="black"/>
<path d="M35.4545 63.3551C33.7973 63.3551 32.2964 62.929 30.9517 62.0767C29.6165 61.215 28.5559 59.9508 27.7699 58.2841C26.9934 56.608 26.6051 54.553 26.6051 52.1193C26.6051 49.6193 27.0076 47.5407 27.8125 45.8835C28.6174 44.2169 29.6875 42.9716 31.0227 42.1477C32.3674 41.3144 33.84 40.8977 35.4403 40.8977C36.6619 40.8977 37.6799 41.1061 38.4943 41.5227C39.3182 41.9299 39.9811 42.4413 40.483 43.0568C40.9943 43.6629 41.3826 44.2595 41.6477 44.8466H41.8324V33.9091H47.8693V63H41.9034V59.5057H41.6477C41.3636 60.1117 40.9612 60.7131 40.4403 61.3097C39.929 61.8968 39.2614 62.3845 38.4375 62.7727C37.6231 63.161 36.6288 63.3551 35.4545 63.3551ZM37.3722 58.5398C38.3475 58.5398 39.1714 58.2746 39.8438 57.7443C40.5256 57.2045 41.0464 56.4517 41.4062 55.4858C41.7756 54.5199 41.9602 53.3883 41.9602 52.0909C41.9602 50.7936 41.7803 49.6667 41.4205 48.7102C41.0606 47.7538 40.5398 47.0152 39.858 46.4943C39.1761 45.9735 38.3475 45.7131 37.3722 45.7131C36.3778 45.7131 35.5398 45.983 34.858 46.5227C34.1761 47.0625 33.66 47.8106 33.3097 48.767C32.9593 49.7235 32.7841 50.8314 32.7841 52.0909C32.7841 53.3598 32.9593 54.482 33.3097 55.4574C33.6695 56.4233 34.1856 57.1809 34.858 57.7301C35.5398 58.2699 36.3778 58.5398 37.3722 58.5398ZM59.6087 33.9091V63H53.4581V33.9091H59.6087ZM76.6605 41.1818V45.7273H63.5213V41.1818H76.6605ZM66.5043 35.9545H72.5554V56.2955C72.5554 56.8542 72.6406 57.2898 72.8111 57.6023C72.9815 57.9053 73.2183 58.1184 73.5213 58.2415C73.8338 58.3646 74.1937 58.4261 74.6009 58.4261C74.8849 58.4261 75.169 58.4025 75.4531 58.3551C75.7372 58.2983 75.955 58.2557 76.1065 58.2273L77.0582 62.7301C76.7552 62.8248 76.3291 62.9337 75.7798 63.0568C75.2306 63.1894 74.563 63.2699 73.777 63.2983C72.3187 63.3551 71.0402 63.161 69.9418 62.7159C68.8527 62.2708 68.0052 61.5795 67.3991 60.642C66.7931 59.7045 66.4948 58.5208 66.5043 57.0909V35.9545Z" fill="black"/>
<path d="M59.679 9.90909V39H53.5284V9.90909H59.679Z" fill="black"/>
<rect x="59" y="41" width="18" height="5" fill="black"/>
<rect x="19" y="34" width="14" height="5" fill="black"/>
</svg>
